# xmcd
#
# Track frame offsets: 
#        150
#        12750
#        28800
#        47925
#        72075
#        93825
#        112500
#        123000
#        142275
#        157200
#        186675
#        207300
#        228300
#        241200
#        254175
#        272025
#
# Disc length: 3822 seconds
#
# Revision: 0
# Processed by: cddbd v1.5.1PL2 Copyright (c) Steve Scherf et al.
# Submitted via: ExactAudioCopy v0.90b4
#
DISCID=e90eec10
DTITLE=Various Artist - Obsession
DYEAR=2006
DGENRE=Rock
TTITLE0=It ain't right
TTITLE1=Country boys down in New Orleans
TTITLE2=What goes around comes around
TTITLE3=Friend of mine
TTITLE4=Tears in heaven
TTITLE5=Sweet dreams
TTITLE6=I put a spell on you
TTITLE7=My Buddy
TTITLE8=Walk on
TTITLE9=See see rider
TTITLE10=Sunny
TTITLE11=One for my baby
TTITLE12=Goodnight Irene
TTITLE13=Sloppy drunk
TTITLE14=Blues had a baby and they named rock and roll
TTITLE15=Az egyiknek sikerül a másiknak nem
EXTD=Limitált kiadás, 300 darab készül belõle....
EXTT0=
EXTT1=
EXTT2=
EXTT3=
EXTT4=
EXTT5=
EXTT6=
EXTT7=
EXTT8=
EXTT9=
EXTT10=
EXTT11=
EXTT12=
EXTT13=
EXTT14=
EXTT15=
PLAYORDER=
